<svg width="116" height="138" viewBox="0 0 116 138" fill="none" xmlns="http://www.w3.org/2000/svg">
<path d="M24.4844 37.2743C24.4813 37.2802 24.4785 37.2863 24.4761 37.2925C24.4822 37.2834 24.4882 37.2736 24.4936 37.2637L24.4844 37.2743Z" fill="#C58FFF"/>
<path d="M49.5538 21.0918L49.5424 21.0956C49.4436 21.1382 49.3433 21.1777 49.2384 21.2157C49.0377 21.3084 48.9617 21.3624 49.5538 21.0918Z" fill="#C58FFF"/>
<path d="M96.7669 48.6422C96.7547 48.633 96.7441 48.6224 96.7319 48.6133C96.7512 48.6455 96.7771 48.6732 96.8079 48.6946L96.7851 48.6558L96.7669 48.6422Z" fill="#C58FFF"/>
<path d="M79.4324 42.0964H79.4194C79.4719 42.0964 79.5167 42.0964 79.5547 42.0918L79.4324 42.0964Z" fill="#C58FFF"/>
<path d="M56.8891 96.2167L54.0249 95.5523L51.9445 98L51.5873 94.5338L49 92.9222L51.6428 91.4439L52.1245 88L54.1149 90.5527L57 90.0362L55.5871 93.0916L56.8891 96.2167Z" fill="#A9FF03"/>
<path d="M57.958 90.3052C58.1371 89.9827 57.7003 89.8505 57.4623 89.8858L54.6817 90.303L54.609 90.3143L52.8573 88.4285L52.5899 88.1393C52.4369 87.9746 52.1418 87.9781 51.9435 88.0368C51.7451 88.0962 51.4723 88.2228 51.4343 88.4505C51.2793 89.3796 51.1246 90.3087 50.9703 91.2385L50.9397 91.4195L48.71 92.466L48.3533 92.6336C48.2138 92.6987 48.0758 92.792 48.0191 92.9412C47.9952 92.997 47.9937 93.06 48.0148 93.1165C48.0359 93.1731 48.0781 93.2198 48.1325 93.2459L50.6275 94.5512L50.859 94.6721C50.9695 95.5758 51.0804 96.4802 51.1916 97.3838L51.2397 97.7763C51.2472 97.8371 51.3205 97.9021 51.3691 97.9311C51.469 97.9834 51.5815 98.0068 51.6937 97.9983C51.9288 97.9969 52.1551 97.9085 52.329 97.7494L54.2828 95.8197L56.5286 96.2567L56.9147 96.3324C57.0636 96.3677 57.2191 96.3642 57.3661 96.3211C57.4209 96.3055 57.4745 96.2864 57.5265 96.2631C57.6158 96.2277 57.6962 96.1726 57.7622 96.1019L57.7874 96.0729L57.7928 96.0658C57.8505 95.9944 57.9131 95.8912 57.8714 95.8063C57.8641 95.7879 57.8548 95.7696 57.8436 95.7526L56.6137 93.2806L56.4741 92.9985C56.9048 92.2164 57.3354 91.4351 57.766 90.653C57.8313 90.5357 57.8944 90.4204 57.958 90.3052ZM54.4823 94.9946C54.3274 94.9628 54.1671 94.9684 54.0152 95.0123C53.8631 95.0561 53.724 95.1367 53.6096 95.2463C53.5652 95.2887 53.5224 95.3319 53.4786 95.375L52.3209 96.5184C52.2433 95.8905 52.1661 95.2626 52.0894 94.6347C52.0809 94.5081 52.0655 94.3829 52.0434 94.2585C52.0097 94.1164 51.8172 94.0485 51.7017 93.9898L50.2468 93.229L49.5831 92.8825L51.4237 92.0177C51.5306 91.964 51.644 91.9173 51.7531 91.8636C51.9236 91.7801 52.0792 91.6599 52.1146 91.4669C52.1258 91.404 52.1354 91.3417 52.1455 91.2788C52.2364 90.7344 52.3272 90.1899 52.4177 89.6454L53.4204 90.7245C53.5027 90.8128 53.5808 90.9069 53.6684 90.9932C53.8679 91.1904 54.1363 91.1296 54.3791 91.0936L56.0132 90.8482L56.5324 90.7704L55.4598 92.717C55.3993 92.8245 55.3341 92.9355 55.278 93.048C55.1913 93.2212 55.2742 93.3167 55.3485 93.4651C55.5924 93.9573 55.8364 94.4494 56.0805 94.9415L56.2822 95.3474L54.8384 95.0674C54.7208 95.0405 54.6015 95.0172 54.4823 94.9946Z" fill="black"/>
<path d="M17.7104 26.384L22.9894 25.9781L25.6479 21.3984L27.6657 26.2935L32.842 27.4069L28.8102 30.8383L29.3514 36.1059L24.8415 33.3311L19.9996 35.4735L21.2444 30.3276L17.7104 26.384Z" fill="#C58FFF"/>
<path d="M33.5395 27.2194C33.4977 27.1039 33.383 27.0553 33.2705 27.031L31.5157 26.651L28.7333 26.0528L28.3047 25.9601L27.6792 24.4401L26.5947 21.8135C26.5118 21.6121 26.4282 21.4107 26.3454 21.2055C26.2572 20.9912 25.9358 20.9836 25.7442 21.0117C25.6172 21.0308 25.4928 21.0642 25.3734 21.1113C25.254 21.1584 25.0694 21.2633 24.9987 21.3811L24.0973 22.9383C23.6216 23.7591 23.1453 24.5794 22.6685 25.3992L22.5294 25.6394L21.2967 25.7344L18.4596 25.9525L17.9178 25.9943H17.9003L17.8068 26.0012C17.6185 26.0215 17.4369 26.0827 17.2748 26.1805C17.2153 26.2166 17.16 26.2591 17.1099 26.3074C16.9951 26.4161 16.9579 26.5392 17.0582 26.654L18.256 27.9901L20.156 30.1097L20.5192 30.5148C20.387 31.063 20.2545 31.611 20.1218 32.1587C19.8983 33.0803 19.6754 34.0022 19.453 34.9243C19.4013 35.1364 19.3504 35.3484 19.301 35.5604C19.2592 35.733 19.4324 35.8173 19.57 35.847C19.8085 35.8865 20.0533 35.8537 20.273 35.7527L21.9138 35.0269L24.5161 33.8755L24.5814 33.8466L25.8126 34.6066L28.2347 36.097L28.7918 36.4398C28.8952 36.5036 29.0487 36.4975 29.1635 36.4907C29.3204 36.4832 29.4748 36.448 29.6195 36.3866C29.8072 36.3014 30.0679 36.1586 30.0428 35.9176C29.982 35.3228 29.9209 34.7277 29.8596 34.1324C29.7623 33.1895 29.6653 32.2461 29.5685 31.3022L29.5184 30.8158L30.7291 29.7852L32.8958 27.9407L33.4027 27.5136C33.4689 27.4581 33.5783 27.3243 33.5395 27.2194ZM28.731 30.3195C28.5729 30.454 28.4095 30.584 28.256 30.7238C28.2083 30.759 28.1701 30.8056 28.145 30.8594C28.1199 30.9132 28.1087 30.9724 28.1124 31.0316C28.1124 31.0536 28.1169 31.0764 28.1192 31.0985C28.1306 31.2041 28.1413 31.3098 28.1519 31.4154L28.4301 34.1256C28.4574 34.387 28.4825 34.6492 28.5061 34.9114L28.3579 34.8202C27.5472 34.3216 26.7365 33.8228 25.9259 33.3238C25.7534 33.2181 25.5816 33.0889 25.4 33.0008C25.1241 32.8662 24.773 32.9597 24.5039 33.0768L24.2128 33.2052L21.7284 34.3049C21.4411 34.4318 21.1531 34.5572 20.865 34.6849C20.9486 34.3368 21.0327 33.989 21.1174 33.6414L21.7915 30.8576C21.8409 30.6554 21.9047 30.4502 21.9397 30.2442C21.9701 30.0641 21.7352 29.8794 21.6266 29.7578L19.8064 27.7271C19.4917 27.3768 19.1832 27.0188 18.8685 26.6677L19.4256 26.6251L22.2726 26.4055C22.477 26.3903 22.6845 26.3827 22.8882 26.3584C23.1792 26.3242 23.5182 26.1965 23.6725 25.9305L23.8321 25.6553L25.1948 23.3054C25.2844 23.1534 25.3749 22.9961 25.4661 22.8411L25.6363 23.2553L26.7261 25.8978C26.8021 26.0893 26.8781 26.2862 26.9633 26.4746C27.0301 26.619 27.1677 26.654 27.3075 26.6836L27.6191 26.7505L30.2791 27.3228L31.6281 27.6131C31.7041 27.6283 31.7756 27.6458 31.8493 27.6625L30.9046 28.4666L28.731 30.3195Z" fill="black"/>
<path d="M94.4874 43.2639L92.5064 39.0064L87.8754 38.2243L91.3124 35.0247L90.6254 30.3789L94.7304 32.6589L98.9364 30.5696L98.0364 35.1782L101.323 38.5329L96.6614 39.1014L94.4874 43.2639Z" fill="#C58FFF"/>
<path d="M102.156 38.2301L99.2793 35.2942C99.1623 35.1742 99.0444 35.0546 98.9274 34.9355L99.6973 30.9919C99.7343 30.8004 99.7733 30.6119 99.8093 30.4173C99.9013 29.9461 98.5934 30.3634 98.4244 30.4455L95.0983 32.0984L91.9694 30.3603L91.4583 30.0761C91.1693 29.9165 90.7193 30.0434 90.4323 30.1339C90.2603 30.1805 90.0973 30.2525 89.9463 30.3474C89.8593 30.4082 89.7183 30.4926 89.7403 30.6172L90.3424 34.6832L90.4183 35.1764L87.5054 37.8881L87.0764 38.2871C86.9554 38.4004 86.9763 38.5432 87.1523 38.5729L91.2054 39.2569L91.6663 39.3329L93.3584 42.9687L93.6054 43.5007C93.6084 43.5052 93.6113 43.5095 93.6143 43.5136L93.6234 43.5281L93.6364 43.544L93.6433 43.5501C93.6753 43.578 93.7133 43.5978 93.7543 43.6079H93.7643C93.9113 43.639 94.0633 43.6416 94.2113 43.6155C94.3053 43.6031 94.3994 43.5853 94.4914 43.5623L94.5264 43.5531L94.5654 43.5433L94.5853 43.5372C94.6763 43.5144 94.7654 43.4857 94.8524 43.4513C94.9364 43.4207 95.0164 43.3828 95.0934 43.3381C95.1674 43.3013 95.2364 43.2537 95.2964 43.1967C95.3364 43.1662 95.3653 43.1239 95.3783 43.0759C96.0083 41.872 96.6373 40.6679 97.2653 39.4636L97.3343 39.3336L100.363 38.9643L100.945 38.8928C101.285 38.8615 101.617 38.7648 101.921 38.6078C102.04 38.5448 102.311 38.3882 102.156 38.2301ZM97.0443 38.7386C96.7723 38.7673 96.5053 38.8335 96.2523 38.9354C96.0803 39.0068 95.8894 39.0912 95.7884 39.2569C95.7804 39.2706 95.7743 39.2857 95.7653 39.2994C95.7213 39.3754 95.6813 39.4613 95.6393 39.5419L94.6403 41.4548L93.6304 39.282C93.5544 39.1155 93.4874 38.9339 93.3944 38.775C93.3014 38.6162 93.0344 38.623 92.8824 38.6002L90.5143 38.1997L88.9284 37.9322L91.7034 35.3482C91.8394 35.2213 91.9843 35.1004 92.1133 34.9682C92.2523 34.8223 92.1734 34.6171 92.1474 34.4362C92.0304 33.6443 91.9133 32.8524 91.7953 32.0604C91.7813 31.9639 91.7673 31.8674 91.7523 31.7709L93.4424 32.7095C93.5944 32.7938 93.7464 32.8858 93.8984 32.9633C94.0744 33.0507 94.2713 33.034 94.4603 33.0097C94.7323 32.9756 94.9974 32.8986 95.2454 32.7817L95.2884 32.7604L95.5334 32.6388L97.6864 31.5687L97.9224 31.4517C97.7054 32.5598 97.4894 33.6681 97.2734 34.7767C97.2374 34.9591 97.1973 35.1415 97.1663 35.3254C97.1483 35.4295 97.1893 35.4645 97.2503 35.5268C97.3123 35.5891 97.3864 35.6659 97.4554 35.7358L99.1354 37.4511C99.4364 37.7551 99.7374 38.0619 100.037 38.3715L97.5644 38.6755L97.0443 38.7386Z" fill="black"/>
<path d="M26.9165 76L25.4438 72.3652L22 71.6978L24.5559 68.9654L24.0445 65L27.0973 66.9461L30.2247 65.1625L29.5561 69.0975L32 71.9606L28.5339 72.4461L26.9165 76Z" fill="#A9FF03"/>
<path d="M32.9527 71.6397L32.0618 70.7322C31.5887 70.2504 31.1155 69.7684 30.642 69.2866L30.3781 69.0182C30.4527 68.6357 30.5276 68.2531 30.603 67.8702L30.9929 65.8839C31.0227 65.7316 31.0527 65.5799 31.0819 65.4301C31.1111 65.2804 30.974 65.2052 30.8486 65.1767C30.6435 65.138 30.4314 65.1655 30.243 65.2551L29.1033 65.8198L27.2871 66.7201L26.4728 66.2664L24.6982 65.283L24.2908 65.0574C24.0959 64.9486 23.7658 65.0127 23.576 65.0995C23.4168 65.1715 23.1823 65.3031 23.2128 65.5093C23.2752 65.928 23.3373 66.3468 23.3993 66.7655C23.4981 67.4324 23.597 68.0996 23.6962 68.7673L23.745 69.0914L22.9516 69.8286L21.4668 71.2074L21.1263 71.5243C21.0671 71.5788 20.9729 71.6916 21.0074 71.7836C21.0283 71.8294 21.061 71.869 21.102 71.8983C21.143 71.9277 21.1911 71.9458 21.2413 71.9509L22.4961 72.1616L24.4962 72.4987L24.7866 72.548L25.259 73.5598L26.1148 75.3944L26.3098 75.8157L26.3143 75.8248C26.3225 75.8488 26.3355 75.8709 26.3526 75.8897C26.3842 75.9217 26.4229 75.946 26.4657 75.9603C26.623 76.0251 26.8439 75.9999 26.9901 75.9603C27.0246 75.9513 27.0551 75.9402 27.0908 75.9279L27.1174 75.9182C27.1279 75.9136 27.1383 75.911 27.1486 75.9059L27.1643 75.8994C27.1983 75.8849 27.2315 75.8684 27.2636 75.8501C27.2732 75.8454 27.2826 75.8402 27.2916 75.8346L27.3091 75.8242C27.3756 75.7885 27.4313 75.7356 27.4703 75.6711C27.4883 75.647 27.5023 75.62 27.5119 75.5915L28.0578 74.5491L28.9967 72.7554L29.0773 72.6024L29.8343 72.5103L31.8487 72.2653L32.3113 72.2089C32.5188 72.1895 32.7155 72.1076 32.8754 71.9743C32.9663 71.8951 33.0586 71.7499 32.9527 71.6397ZM29.1715 71.9424C29.0272 71.9599 28.8823 71.9743 28.7387 71.995C28.5022 72.03 28.1948 72.1246 28.0746 72.3554L27.9713 72.5498L27.0752 74.2612L27.0011 74.4025L26.9712 74.3377C26.684 73.7232 26.397 73.1082 26.1103 72.4929C26.0485 72.3632 25.99 72.2251 25.9244 72.0942C25.8659 71.9775 25.7594 71.9354 25.6404 71.9152L25.4143 71.877L23.5072 71.5529L22.5364 71.3895L22.4636 71.3765L23.0283 70.8514L24.5228 69.4649C24.63 69.3651 24.7405 69.2704 24.8477 69.1654C24.9302 69.0844 24.9777 69.0124 24.9679 68.8976C24.9679 68.8827 24.9634 68.8672 24.9614 68.8523C24.9504 68.777 24.9387 68.7012 24.9276 68.626C24.8332 67.9894 24.7387 67.3531 24.6443 66.7169C24.6257 66.5873 24.607 66.4576 24.5884 66.328L26.2487 67.2479C26.3741 67.3172 26.4988 67.3989 26.6295 67.4585C26.8608 67.5648 27.1643 67.5084 27.3871 67.3982L27.5872 67.299L29.317 66.4498L29.7498 66.2372L29.6328 66.8362C29.5029 67.4996 29.3729 68.163 29.243 68.8263C29.2144 68.9715 29.178 69.1174 29.1572 69.2639C29.1364 69.4104 29.3008 69.5335 29.3989 69.6327L30.7557 71.0142C30.9702 71.2326 31.1819 71.455 31.3964 71.6747L31.1924 71.6994L29.1715 71.9424Z" fill="black"/>
<path d="M63 66.3302C63 66.3302 90.2502 107.236 91.3067 107.894C92.3631 108.552 94.7853 106.016 93.7466 104.2C92.7087 102.385 63.9852 63 63.9852 63L63 66.3302Z" fill="#A9FF03"/>
<path d="M94.7172 104.984C94.6402 104.847 94.5569 104.712 94.473 104.579C93.9651 103.776 93.4259 102.989 92.8968 102.2C91.9668 100.818 91.0306 99.4388 90.0887 98.0638C88.8626 96.2665 87.6339 94.4711 86.4021 92.6783C85.0001 90.6343 83.596 88.5915 82.1897 86.5493C80.7302 84.4268 79.2683 82.305 77.804 80.1841C76.4025 78.1521 75 76.1204 73.5967 74.0891C72.3688 72.3114 71.1404 70.5339 69.9115 68.7568C68.9805 67.4096 68.0491 66.063 67.1172 64.717L65.5724 62.4849L65.3744 62.1992C65.2716 62.0504 65.0041 62.0233 64.8475 62.0088C64.5831 61.9846 64.3165 62.0104 64.0613 62.0847C63.6805 62.1978 63.1037 62.4138 62.9809 62.8508L62.0114 66.3004C61.9974 66.3507 61.9963 66.4037 62.0082 66.4545C62.0201 66.5052 62.0446 66.552 62.0794 66.5904C62.0847 66.5992 62.0894 66.6083 62.0951 66.6175C62.3518 67.0229 62.6085 67.4281 62.8652 67.8332C63.5592 68.9287 64.2535 70.0243 64.9484 71.1199C65.9749 72.7385 67.0024 74.3566 68.031 75.9741C69.2761 77.932 70.5223 79.8894 71.7695 81.8463C73.1269 83.9759 74.4862 86.1043 75.8474 88.2315C77.2086 90.3582 78.573 92.485 79.9405 94.6117C81.1979 96.5654 82.459 98.5166 83.7237 100.466C84.7679 102.074 85.8178 103.677 86.873 105.277C87.5938 106.367 88.3165 107.455 89.0623 108.526C89.2696 108.823 89.4775 109.12 89.6998 109.407C90.033 109.833 90.4588 109.996 91.0231 110C92.8316 110.012 94.6634 108.44 94.959 106.617C95.0504 106.057 94.9972 105.481 94.7172 104.984ZM91.5428 108.661L91.5147 108.676C91.5241 108.669 91.5334 108.665 91.5441 108.661H91.5428ZM91.4796 108.703C91.4577 108.717 91.432 108.731 91.4088 108.742C91.4564 108.711 91.489 108.694 91.5103 108.678L91.4796 108.703ZM91.5115 108.678C91.4758 108.697 91.4389 108.721 91.4038 108.744L91.3982 108.747L91.4032 108.745L91.385 108.757C91.4245 108.722 91.4689 108.693 91.5172 108.673L91.5115 108.678ZM91.3844 108.758L91.4076 108.743L91.4602 108.719L91.4389 108.736C91.4032 108.766 91.375 108.772 91.3857 108.758H91.3844Z" fill="black"/>
<path d="M63 64.7607C63 64.7607 72.3847 79.3929 80.233 91.5526C80.8103 92.4473 81.9647 94.4418 81.9647 94.4418C81.9647 94.4418 83.4217 96.486 84.1192 97.5626L85.1039 99.082C85.7422 100.066 86.3432 100.992 86.8983 101.843C87.309 102.474 88.0609 103.739 88.0609 103.739C88.0609 103.739 88.542 104.361 88.7654 104.699C89.8717 106.386 90.5768 107.435 90.7021 107.573C91.9268 108.924 94.8142 106.801 93.7806 104.94C93.5401 104.509 89.5287 98.4717 89.5287 98.4717C89.5287 98.4717 88.1768 96.8296 87.5635 95.9582C87.0881 95.2837 86.5957 94.5859 86.0869 93.8636C85.7344 93.364 85.1664 92.4322 85.1664 92.4322C85.1664 92.4322 84.4804 91.5891 84.2116 91.2091C83.5819 90.3182 82.9378 89.4071 82.2846 88.4835C73.96 76.7247 64.1757 63 64.1757 63L63 64.7607Z" fill="#A9FF03"/>
<path d="M70.9749 84.4373L70.9604 84.4426L71.079 84.4023L71.0152 84.4236L70.9749 84.4373Z" fill="#C58FFF"/>
<path d="M50.8095 45L61.8106 52.0991L73.1617 45.3473L70.5137 58.3425L83 66.9726L64.4597 65.8709L58.5255 77L55.7565 66.9726L41 68.0738L53.6756 57.0569L50.8095 45Z" fill="#A9FF03"/>
<path d="M47.8461 45.7332L49.624 50.5925L51.1676 54.8116C51.3611 55.342 51.5405 55.8819 51.7407 56.4122L51.178 56.9071L48.0988 59.6175C46.8578 60.7097 45.6168 61.802 44.3758 62.8942L41.1447 65.739C40.6235 66.1973 40.1025 66.6559 39.5817 67.1146L39.5597 67.1337C39.1935 67.4547 38.831 67.8759 39.0848 68.381C39.3289 68.8609 39.9631 68.9916 40.463 68.9539L41.9498 68.8411L45.5434 68.567L49.8731 68.24L53.637 67.9551C53.8104 67.9419 53.9843 67.9304 54.1582 67.9184L54.2571 68.6383C54.4255 69.8598 54.5941 71.0811 54.763 72.3026C54.9664 73.7803 55.1699 75.2582 55.3734 76.7359L58.0161 80L61.6952 75.9999C62.3464 74.4083 62.8548 73.4502 63.506 71.8605C64.0651 70.4951 64.624 69.1295 65.1826 67.7636C65.3175 67.4343 65.4567 67.1037 65.5934 66.7768L65.8204 66.7906L70.332 67.0618L75.7688 67.3893L80.505 67.6743C81.2661 67.7199 82.0272 67.7733 82.7889 67.8116H82.8218C83.1784 67.8374 83.5365 67.7881 83.8722 67.6671C84.1774 67.5585 84.5039 67.3917 84.7078 67.138C84.8487 66.9733 84.9459 66.7769 84.9909 66.5663C85.0453 66.2627 84.8475 65.9664 84.6095 65.7989L83.3449 64.9141L80.3085 62.7887L76.6349 60.2168L73.4612 57.9941C73.1066 57.7458 72.7568 57.4855 72.4004 57.2371L72.719 56.1212L73.7774 52.4108C74.2045 50.915 74.6318 49.4191 75.0591 47.9229L75.4252 46.6348L74.0093 44.1507L69.5416 44.6468L65.7149 47.2636L62.3886 49.539C62.2994 49.599 62.2091 49.659 62.1194 49.719L61.5896 49.2883L58.1461 46.4903C56.7521 45.357 53.7755 43.1308 52.3815 42L47.8461 45.7332ZM77.5449 65.19L75.2622 65.0527L72.1087 64.8631C71.5252 64.8277 69.9591 64.8733 69.9591 64.8733C69.9591 64.8733 68.3673 64.6376 67.3725 64.5776C66.6114 64.532 65.8504 64.4816 65.0886 64.4402H65.0557C64.637 64.415 64.1792 64.4641 63.8002 64.6574C63.4828 64.8194 63.1197 65.0503 62.9805 65.3905L62.3091 67.0264L61.3326 69.417C61.1227 69.9306 60.7833 70.9858 60.7833 70.9858C60.7833 70.9858 60.01 72.6415 59.6652 73.4844L58.7454 75.7323C58.6924 75.8612 58.6398 75.9908 58.5868 76.1198C58.4647 75.2535 58.1504 73.5732 58.1504 73.5732C58.1504 73.5732 58.0893 72.5011 58.0161 71.9912C57.9148 71.2581 57.8131 70.5254 57.7109 69.7932C57.6353 69.2488 57.56 68.7046 57.4851 68.1602C57.4278 67.7427 57.37 67.3252 57.3118 66.9076C57.2849 66.709 57.2733 66.4991 57.2288 66.3035C57.2288 66.2945 57.2288 66.2849 57.2245 66.2759L57.0921 66.0114C56.9956 65.8824 56.8624 65.7843 56.7094 65.7294C56.4196 65.5957 56.0986 65.5408 55.7799 65.5704L54.2937 65.6832C53.6419 65.7324 52.4853 65.9429 52.4853 65.9429C52.4853 65.9429 51.2463 65.9136 50.7001 65.9549L48.7275 66.1037L46.371 66.2837L44.0029 66.4637C44.6742 65.8704 45.9376 64.6184 45.9376 64.6184C45.9376 64.6184 47.1303 63.7077 47.685 63.2223L49.7547 61.4022C50.1496 61.0549 51.0272 60.4346 51.0272 60.4346C51.0272 60.4346 52.304 59.1586 52.9864 58.558C53.5076 58.099 54.0286 57.6404 54.5494 57.1825L54.5714 57.1627C54.8705 56.8993 55.2776 56.5028 55.1121 56.0481L54.497 54.3683C54.3468 53.9574 54.3139 53.5614 54.1661 53.1511C53.9989 52.6934 53.7114 52.2206 53.5442 51.7629L53.0273 50.3501C52.7221 49.5247 52.5238 48.8408 52.2222 48.0153C51.9317 47.221 51.5405 46.2852 51.25 45.4908L50.8228 44.3246L51.0107 44.4782C51.8542 45.1629 52.6973 45.8478 53.54 46.5329L55.1928 47.8761C55.559 48.1716 55.9231 48.4676 56.2852 48.764L58.7937 50.8037C59.3771 51.2776 59.9478 51.7767 60.5484 52.2296C60.5576 52.2363 60.5654 52.2434 60.574 52.2506C60.8297 52.4582 61.348 52.5152 61.6574 52.4828C62.087 52.4419 62.4991 52.2943 62.8548 52.0538C63.2961 51.7539 64.1695 50.9632 64.2501 50.9236C64.3013 50.8985 65.118 50.5037 65.5873 50.1851L67.3572 48.9745C67.9786 48.5498 69.2072 47.9061 69.2718 47.8581C69.4336 47.7381 70.5298 46.8053 71.184 46.3583L72.6384 45.3643C72.4211 46.1262 72.2037 46.8878 71.986 47.6493L71.1773 50.4821C71.0199 51.0328 70.8628 51.5832 70.7061 52.133C70.523 52.7834 70.0622 54.078 70.0622 54.0845C70.0622 54.0912 69.7851 55.3593 69.6032 55.9977C69.4244 56.6246 69.2041 57.2539 69.0631 57.8904C69.0631 57.9 69.0576 57.909 69.0552 57.918C68.9734 58.2054 69.2212 58.5347 69.4366 58.6853L70.6988 59.5683L71.9939 60.4748C72.5744 60.8815 73.9079 61.6866 73.9079 61.6866C73.9079 61.6866 75.103 62.6512 75.7866 63.13L77.4094 64.2656L78.8388 65.2662L77.5449 65.19Z" fill="black"/>
</svg>
